<?xml version="1.0" standalone="no"?>
<!DOCTYPE svg PUBLIC "-//W3C//DTD SVG 20010904//EN"
 "http://www.w3.org/TR/2001/REC-SVG-20010904/DTD/svg10.dtd">
<svg version="1.0" xmlns="http://www.w3.org/2000/svg"
 width="256.000000pt" height="256.000000pt" viewBox="0 0 256.000000 256.000000"
 preserveAspectRatio="xMidYMid meet">
<metadata>
Created by potrace 1.11, written by Peter Selinger 2001-2013
</metadata>
<g transform="translate(0.000000,256.000000) scale(0.100000,-0.100000)"
fill="#000000" stroke="none">
<path d="M0 1280 l0 -1280 1280 0 1280 0 0 1280 0 1280 -1280 0 -1280 0 0
-1280z m1773 896 c49 -24 115 -100 122 -140 3 -17 5 -369 3 -782 l-3 -750 -27
-42 c-15 -22 -49 -54 -75 -69 l-48 -28 -435 -3 c-485 -4 -514 -1 -577 53 -78
66 -73 12 -73 867 l0 764 29 45 c33 53 81 86 143 99 24 4 237 8 473 7 398 -2
433 -3 468 -21z"/>
<path d="M842 1998 c-17 -17 -17 -269 0 -286 9 -9 120 -12 440 -12 421 0 427
0 438 21 17 31 11 257 -7 275 -19 19 -852 21 -871 2z"/>
<path d="M890 1427 c-14 -7 -33 -29 -43 -50 -16 -31 -17 -42 -7 -73 28 -84
146 -99 186 -23 48 95 -43 193 -136 146z"/>
<path d="M1224 1421 c-19 -12 -37 -34 -43 -54 -28 -85 64 -166 142 -126 96 49
62 199 -45 199 -13 0 -37 -9 -54 -19z"/>
<path d="M1568 1424 c-36 -19 -48 -43 -48 -94 0 -93 111 -133 176 -63 42 45
27 131 -27 159 -35 18 -66 17 -101 -2z"/>
<path d="M881 1084 c-62 -44 -60 -135 5 -175 88 -54 186 40 142 136 -23 50
-101 71 -147 39z"/>
<path d="M1217 1080 c-39 -31 -52 -81 -32 -123 34 -73 119 -86 169 -26 78 92
-43 223 -137 149z"/>
<path d="M1549 1071 c-28 -28 -33 -43 -30 -86 7 -90 117 -123 175 -54 44 52
33 125 -24 154 -46 24 -87 19 -121 -14z"/>
<path d="M872 735 c-87 -73 -3 -215 102 -171 44 18 66 52 66 99 0 85 -101 128
-168 72z"/>
<path d="M1221 744 c-29 -21 -52 -74 -44 -105 8 -34 50 -76 81 -82 97 -19 162
104 93 174 -34 34 -92 40 -130 13z"/>
<path d="M1549 731 c-38 -38 -41 -106 -6 -139 51 -48 111 -48 152 0 84 100
-54 231 -146 139z"/>
</g>
</svg>
